<svg xmlns="http://www.w3.org/2000/svg" xmlns:xlink="http://www.w3.org/1999/xlink" width="500" zoomAndPan="magnify" viewBox="0 0 375 374.999991" height="500" preserveAspectRatio="xMidYMid meet" version="1.0"><rect x="-37.5" width="450" fill="#ffffff" y="-37.499999" height="449.999989" fill-opacity="1"/><rect x="-37.5" width="450" fill="#ffffff" y="-37.499999" height="449.999989" fill-opacity="1"/><rect x="-37.5" width="450" fill="#ffffff" y="-37.499999" height="449.999989" fill-opacity="1"/><path fill="#000000" d="M 187.5 0 C 84.09375 0 0 84.09375 0 187.5 C 0 290.90625 84.09375 375 187.5 375 C 290.90625 375 375 290.90625 375 187.5 C 375 84.09375 290.90625 0 187.5 0 Z M 187.5 361.847656 C 91.230469 361.847656 13.152344 283.769531 13.152344 187.5 C 13.152344 91.230469 91.230469 13.152344 187.5 13.152344 C 283.769531 13.152344 361.847656 91.230469 361.847656 187.5 C 361.847656 283.769531 283.769531 361.847656 187.5 361.847656 Z M 187.5 361.847656 " fill-opacity="1" fill-rule="nonzero"/><path fill="#000000" d="M 266.976562 255.128906 C 278.636719 241.136719 270.054688 232.976562 262.3125 227.097656 C 254.570312 221.222656 236.332031 213.710938 230.738281 220.429688 C 225.140625 227.144531 216.183594 235.542969 209.28125 233.722656 C 197.621094 230.644531 182.742188 214.925781 171.410156 203.589844 C 160.074219 192.257812 144.355469 177.378906 141.277344 165.71875 C 139.457031 158.816406 147.25 150.375 154.570312 144.261719 C 161.894531 138.152344 154.199219 121.082031 147.902344 112.6875 C 141.605469 104.292969 133.863281 96.363281 119.871094 108.023438 C 105.875 119.683594 88.199219 150.699219 120.800781 197.996094 C 129.152344 210.121094 136.332031 217.117188 147.109375 227.890625 C 157.882812 238.664062 164.878906 245.847656 177.003906 254.199219 C 224.300781 286.800781 255.316406 269.125 266.976562 255.128906 Z M 266.976562 255.128906 " fill-opacity="1" fill-rule="nonzero"/><path fill="#000000" d="M 227.796875 194.824219 C 227.390625 194.824219 226.988281 194.789062 226.589844 194.714844 C 226.191406 194.640625 225.800781 194.53125 225.421875 194.382812 C 225.042969 194.238281 224.679688 194.058594 224.335938 193.84375 C 223.992188 193.628906 223.667969 193.386719 223.367188 193.113281 C 223.070312 192.839844 222.796875 192.539062 222.554688 192.214844 C 222.308594 191.890625 222.097656 191.542969 221.917969 191.179688 C 221.738281 190.816406 221.59375 190.4375 221.484375 190.046875 C 221.375 189.65625 221.304688 189.257812 221.269531 188.851562 C 221.175781 187.835938 221.039062 186.824219 220.859375 185.820312 C 220.679688 184.816406 220.457031 183.820312 220.191406 182.835938 C 219.925781 181.847656 219.617188 180.878906 219.265625 179.917969 C 218.914062 178.960938 218.523438 178.019531 218.089844 177.09375 C 217.660156 176.167969 217.1875 175.265625 216.675781 174.382812 C 216.164062 173.5 215.613281 172.636719 215.027344 171.800781 C 214.441406 170.96875 213.820312 170.15625 213.164062 169.375 C 212.507812 168.59375 211.820312 167.84375 211.097656 167.121094 C 210.375 166.398438 209.625 165.710938 208.84375 165.054688 C 208.058594 164.398438 207.25 163.777344 206.414062 163.191406 C 205.578125 162.601562 204.71875 162.054688 203.835938 161.542969 C 202.953125 161.03125 202.050781 160.558594 201.125 160.128906 C 200.199219 159.695312 199.257812 159.300781 198.300781 158.953125 C 197.339844 158.601562 196.367188 158.292969 195.382812 158.027344 C 194.398438 157.761719 193.402344 157.535156 192.398438 157.355469 C 191.394531 157.175781 190.382812 157.042969 189.367188 156.949219 C 188.933594 156.910156 188.511719 156.832031 188.097656 156.710938 C 187.683594 156.589844 187.285156 156.425781 186.902344 156.226562 C 186.519531 156.027344 186.160156 155.792969 185.824219 155.519531 C 185.488281 155.25 185.179688 154.949219 184.902344 154.617188 C 184.625 154.285156 184.382812 153.929688 184.175781 153.550781 C 183.96875 153.171875 183.800781 152.777344 183.671875 152.367188 C 183.542969 151.953125 183.453125 151.53125 183.40625 151.101562 C 183.359375 150.671875 183.355469 150.242188 183.394531 149.8125 C 183.433594 149.382812 183.515625 148.960938 183.636719 148.546875 C 183.757812 148.132812 183.917969 147.734375 184.117188 147.351562 C 184.316406 146.96875 184.554688 146.609375 184.824219 146.269531 C 185.09375 145.933594 185.394531 145.628906 185.726562 145.351562 C 186.058594 145.074219 186.414062 144.832031 186.792969 144.625 C 187.171875 144.417969 187.566406 144.25 187.980469 144.117188 C 188.390625 143.988281 188.8125 143.902344 189.242188 143.855469 C 189.671875 143.808594 190.101562 143.804688 190.53125 143.84375 C 191.925781 143.972656 193.316406 144.160156 194.695312 144.40625 C 196.074219 144.65625 197.441406 144.960938 198.792969 145.328125 C 200.144531 145.695312 201.480469 146.121094 202.796875 146.601562 C 204.113281 147.085938 205.40625 147.621094 206.675781 148.21875 C 207.945312 148.8125 209.183594 149.460938 210.398438 150.160156 C 211.609375 150.863281 212.792969 151.617188 213.9375 152.421875 C 215.085938 153.226562 216.195312 154.078125 217.269531 154.980469 C 218.34375 155.882812 219.378906 156.828125 220.367188 157.816406 C 221.359375 158.808594 222.308594 159.839844 223.210938 160.914062 C 224.113281 161.984375 224.964844 163.09375 225.769531 164.242188 C 226.578125 165.390625 227.332031 166.566406 228.035156 167.78125 C 228.738281 168.992188 229.386719 170.234375 229.984375 171.5 C 230.578125 172.769531 231.121094 174.0625 231.601562 175.378906 C 232.085938 176.695312 232.511719 178.027344 232.882812 179.378906 C 233.25 180.734375 233.558594 182.097656 233.808594 183.476562 C 234.054688 184.855469 234.246094 186.246094 234.375 187.640625 C 234.414062 188.070312 234.410156 188.503906 234.363281 188.933594 C 234.316406 189.363281 234.230469 189.785156 234.101562 190.199219 C 233.972656 190.613281 233.804688 191.011719 233.597656 191.390625 C 233.390625 191.773438 233.148438 192.128906 232.871094 192.460938 C 232.59375 192.796875 232.289062 193.097656 231.953125 193.371094 C 231.613281 193.644531 231.253906 193.882812 230.871094 194.085938 C 230.488281 194.289062 230.089844 194.449219 229.675781 194.574219 C 229.257812 194.699219 228.835938 194.78125 228.40625 194.824219 Z M 227.796875 194.824219 " fill-opacity="1" fill-rule="nonzero"/><path fill="#000000" d="M 258.394531 195.195312 C 257.976562 195.195312 257.558594 195.15625 257.144531 195.078125 C 256.734375 194.996094 256.332031 194.878906 255.941406 194.722656 C 255.550781 194.566406 255.179688 194.375 254.828125 194.148438 C 254.472656 193.917969 254.144531 193.660156 253.839844 193.371094 C 253.539062 193.078125 253.265625 192.761719 253.023438 192.417969 C 252.777344 192.074219 252.570312 191.714844 252.398438 191.332031 C 252.222656 190.945312 252.089844 190.550781 251.992188 190.140625 C 251.894531 189.734375 251.835938 189.320312 251.820312 188.898438 C 251.722656 186.878906 251.53125 184.871094 251.25 182.871094 C 250.96875 180.867188 250.59375 178.882812 250.128906 176.917969 C 249.664062 174.949219 249.109375 173.007812 248.464844 171.09375 C 247.820312 169.179688 247.089844 167.296875 246.273438 165.449219 C 245.453125 163.601562 244.554688 161.792969 243.570312 160.027344 C 242.585938 158.261719 241.519531 156.546875 240.378906 154.878906 C 239.234375 153.214844 238.019531 151.601562 236.726562 150.046875 C 235.433594 148.492188 234.074219 147 232.644531 145.574219 C 231.214844 144.144531 229.726562 142.78125 228.171875 141.492188 C 226.617188 140.199219 225.003906 138.984375 223.339844 137.839844 C 221.671875 136.699219 219.957031 135.632812 218.191406 134.648438 C 216.425781 133.664062 214.617188 132.761719 212.769531 131.945312 C 210.921875 131.128906 209.039062 130.398438 207.125 129.753906 C 205.210938 129.109375 203.269531 128.554688 201.300781 128.089844 C 199.335938 127.625 197.351562 127.25 195.347656 126.96875 C 193.347656 126.683594 191.335938 126.496094 189.320312 126.398438 C 188.886719 126.378906 188.460938 126.316406 188.042969 126.214844 C 187.621094 126.109375 187.214844 125.964844 186.824219 125.78125 C 186.433594 125.597656 186.0625 125.378906 185.714844 125.121094 C 185.367188 124.867188 185.046875 124.578125 184.757812 124.257812 C 184.464844 123.9375 184.207031 123.59375 183.984375 123.222656 C 183.761719 122.855469 183.578125 122.464844 183.429688 122.058594 C 183.285156 121.652344 183.175781 121.234375 183.113281 120.808594 C 183.046875 120.382812 183.027344 119.953125 183.046875 119.519531 C 183.066406 119.085938 183.128906 118.660156 183.230469 118.242188 C 183.335938 117.824219 183.480469 117.417969 183.664062 117.027344 C 183.847656 116.632812 184.066406 116.265625 184.324219 115.917969 C 184.578125 115.570312 184.867188 115.25 185.1875 114.957031 C 185.503906 114.667969 185.851562 114.410156 186.21875 114.1875 C 186.589844 113.960938 186.980469 113.777344 187.386719 113.628906 C 187.792969 113.484375 188.210938 113.378906 188.636719 113.3125 C 189.0625 113.25 189.492188 113.226562 189.925781 113.246094 C 192.347656 113.363281 194.761719 113.59375 197.164062 113.933594 C 199.566406 114.273438 201.949219 114.722656 204.308594 115.28125 C 206.671875 115.839844 209 116.507812 211.300781 117.28125 C 213.601562 118.058594 215.859375 118.933594 218.078125 119.917969 C 220.296875 120.902344 222.464844 121.984375 224.582031 123.164062 C 226.703125 124.347656 228.761719 125.625 230.761719 126.996094 C 232.765625 128.371094 234.699219 129.832031 236.5625 131.382812 C 238.429688 132.933594 240.222656 134.566406 241.9375 136.28125 C 243.652344 137.996094 245.285156 139.789062 246.835938 141.65625 C 248.386719 143.519531 249.847656 145.453125 251.21875 147.457031 C 252.59375 149.457031 253.871094 151.515625 255.050781 153.636719 C 256.234375 155.753906 257.316406 157.921875 258.300781 160.140625 C 259.28125 162.359375 260.160156 164.617188 260.9375 166.917969 C 261.710938 169.21875 262.375 171.546875 262.9375 173.910156 C 263.496094 176.269531 263.945312 178.652344 264.285156 181.054688 C 264.625 183.457031 264.855469 185.871094 264.972656 188.292969 C 264.992188 188.726562 264.96875 189.15625 264.902344 189.582031 C 264.835938 190.007812 264.726562 190.425781 264.582031 190.832031 C 264.433594 191.238281 264.246094 191.625 264.019531 191.996094 C 263.796875 192.363281 263.539062 192.707031 263.246094 193.027344 C 262.953125 193.34375 262.632812 193.632812 262.285156 193.886719 C 261.933594 194.140625 261.5625 194.359375 261.171875 194.542969 C 260.78125 194.726562 260.375 194.867188 259.953125 194.96875 C 259.535156 195.070312 259.105469 195.132812 258.675781 195.148438 Z M 258.394531 195.195312 " fill-opacity="1" fill-rule="nonzero"/></svg>