<svg xmlns="http://www.w3.org/2000/svg" xmlns:xlink="http://www.w3.org/1999/xlink" width="500" zoomAndPan="magnify" viewBox="0 0 375 374.999991" height="500" preserveAspectRatio="xMidYMid meet" version="1.0"><rect x="-37.5" width="450" fill="#ffffff" y="-37.499999" height="449.999989" fill-opacity="1"/><rect x="-37.5" width="450" fill="#ffffff" y="-37.499999" height="449.999989" fill-opacity="1"/><path fill="#000000" d="M 187.5 375 C 84 375 0 291 0 187.5 C 0 84 84 0 187.5 0 C 291 0 375 84 375 187.5 C 375 291 291 375 187.5 375 Z M 187.5 7.5 C 88.5 7.5 7.5 88.5 7.5 187.5 C 7.5 286.5 88.125 367.5 187.5 367.5 C 286.875 367.5 367.5 286.875 367.5 187.5 C 367.5 88.125 286.5 7.5 187.5 7.5 Z M 187.5 7.5 " fill-opacity="1" fill-rule="nonzero"/><path fill="#000000" d="M 187.5 183.75 C 187.125 183.75 187.125 183.75 186.75 183.75 L 61.875 158.625 C 60 158.25 58.875 156.75 58.875 154.875 C 58.875 153 60 151.5 61.875 151.125 L 186.75 121.875 C 187.5 121.875 187.875 121.875 188.625 121.875 L 313.5 151.125 C 315.375 151.5 316.5 153 316.5 154.875 C 316.5 156.75 315 158.25 313.5 158.625 L 188.625 183.75 C 187.875 183.75 187.875 183.75 187.5 183.75 Z M 80.625 154.125 L 187.5 175.875 L 294.375 154.125 L 187.5 129 Z M 80.625 154.125 " fill-opacity="1" fill-rule="nonzero"/><path fill="#000000" d="M 191.25 253.875 C 189.75 253.875 188.625 253.875 187.125 253.875 C 157.125 255.375 109.5 240 106.5 237.375 L 105.375 236.25 L 105.375 174.75 L 187.5 191.25 L 261.75 174.75 L 261.75 236.25 L 260.625 237.375 C 258 239.25 219.75 253.875 191.25 253.875 Z M 113.25 231.75 C 122.625 235.5 160.5 247.125 187.125 246 C 210.75 247.125 245.25 235.5 253.875 231.75 L 253.875 184.5 L 187.5 199.125 L 113.25 184.125 Z M 113.25 231.75 " fill-opacity="1" fill-rule="nonzero"/><path fill="#000000" d="M 281.25 160.125 C 281.25 160.125 187.125 152.25 187.125 152.25 C 184.875 152.25 183.375 150 183.375 148.125 C 183.375 145.875 185.625 144.375 187.5 144.375 L 281.25 152.25 C 283.875 152.625 283.125 160.125 281.25 160.125 Z M 281.25 160.125 " fill-opacity="1" fill-rule="nonzero"/><path fill="#000000" d="M 281.25 214.875 C 279 214.875 277.5 213 277.5 211.125 L 277.5 156.375 C 277.5 154.125 279.375 152.625 281.25 152.625 C 283.125 152.625 285 154.5 285 156.375 L 285 211.125 C 285 213 283.5 214.875 281.25 214.875 Z M 281.25 214.875 " fill-opacity="1" fill-rule="nonzero"/><path fill="#000000" d="M 277.5 218.625 L 285.375 218.625 L 285.375 234.375 L 277.5 234.375 Z M 277.5 218.625 " fill-opacity="1" fill-rule="nonzero"/></svg>