<svg xmlns="http://www.w3.org/2000/svg" xmlns:xlink="http://www.w3.org/1999/xlink" width="500" zoomAndPan="magnify" viewBox="0 0 375 374.999991" height="500" preserveAspectRatio="xMidYMid meet" version="1.0"><defs><clipPath id="f6dcd686f3"><path d="M 0 96 L 375 96 L 375 339.375 L 0 339.375 Z M 0 96 " clip-rule="nonzero"/></clipPath><clipPath id="0ed47f58e2"><path d="M 97 35.625 L 278 35.625 L 278 120 L 97 120 Z M 97 35.625 " clip-rule="nonzero"/></clipPath></defs><rect x="-37.5" width="450" fill="#ffffff" y="-37.499999" height="449.999989" fill-opacity="1"/><rect x="-37.5" width="450" fill="#ffffff" y="-37.499999" height="449.999989" fill-opacity="1"/><rect x="-37.5" width="450" fill="#ffffff" y="-37.499999" height="449.999989" fill-opacity="1"/><g clip-path="url(#f6dcd686f3)"><path fill="#040606" d="M 38.640625 316.753906 L 336.359375 316.753906 C 340.667969 316.753906 344.574219 315 347.417969 312.191406 L 347.464844 312.144531 L 347.542969 312.0625 C 350.308594 309.21875 352.027344 305.351562 352.027344 301.085938 L 352.027344 134.929688 C 352.027344 130.636719 350.273438 126.722656 347.464844 123.878906 L 347.417969 123.824219 L 347.335938 123.746094 C 344.492188 120.980469 340.625 119.265625 336.359375 119.265625 L 38.640625 119.265625 C 34.347656 119.265625 30.425781 121.019531 27.585938 123.824219 L 27.457031 123.953125 C 24.691406 126.796875 22.972656 130.675781 22.972656 134.929688 L 22.972656 301.085938 C 22.972656 305.390625 24.730469 309.300781 27.535156 312.144531 L 27.585938 312.191406 L 27.664062 312.269531 C 30.507812 315.035156 34.386719 316.753906 38.640625 316.753906 Z M 336.359375 339.347656 L 38.640625 339.347656 C 28.214844 339.347656 18.707031 335.089844 11.804688 328.277344 L 11.648438 328.125 L 11.601562 328.078125 C 4.683594 321.148438 0.378906 311.578125 0.378906 301.085938 L 0.378906 134.929688 C 0.378906 124.503906 4.636719 115 11.449219 108.097656 L 11.601562 107.945312 L 11.648438 107.890625 C 18.570312 100.988281 28.136719 96.671875 38.640625 96.671875 L 336.359375 96.671875 C 346.738281 96.671875 356.203125 100.882812 363.117188 107.675781 L 363.347656 107.890625 L 363.398438 107.945312 C 370.300781 114.859375 374.621094 124.425781 374.621094 134.929688 L 374.621094 301.085938 C 374.621094 311.464844 370.40625 320.929688 363.617188 327.84375 L 363.398438 328.078125 L 363.347656 328.125 C 356.421875 335.042969 346.855469 339.347656 336.359375 339.347656 " fill-opacity="1" fill-rule="nonzero"/></g><g clip-path="url(#0ed47f58e2)"><path fill="#040606" d="M 277.75 107.964844 C 277.75 114.207031 272.695312 119.265625 266.457031 119.265625 C 260.214844 119.265625 255.160156 114.207031 255.160156 107.964844 L 255.160156 66.289062 C 255.160156 64.074219 254.246094 62.050781 252.8125 60.589844 C 251.355469 59.15625 249.328125 58.246094 247.117188 58.246094 L 127.875 58.246094 C 125.65625 58.246094 123.632812 59.15625 122.175781 60.589844 C 120.738281 62.050781 119.828125 64.074219 119.828125 66.289062 L 119.828125 107.964844 C 119.828125 114.207031 114.769531 119.265625 108.535156 119.265625 C 102.292969 119.265625 97.238281 114.207031 97.238281 107.964844 L 97.238281 66.289062 C 97.238281 57.953125 100.628906 50.355469 106.0625 44.835938 L 106.265625 44.632812 C 111.796875 39.113281 119.457031 35.652344 127.875 35.652344 L 247.117188 35.652344 C 255.429688 35.652344 263.035156 39.046875 268.566406 44.476562 L 268.773438 44.683594 C 274.292969 50.21875 277.75 57.875 277.75 66.289062 L 277.75 107.964844 " fill-opacity="1" fill-rule="nonzero"/></g><path fill="#040606" d="M 363.324219 229.308594 L 11.675781 229.308594 L 11.675781 206.71875 L 363.324219 206.71875 L 363.324219 229.308594 " fill-opacity="1" fill-rule="nonzero"/><path fill="#040606" d="M 176.199219 185.011719 C 176.199219 178.769531 181.257812 173.710938 187.496094 173.710938 C 193.730469 173.710938 198.789062 178.769531 198.789062 185.011719 L 198.789062 251.019531 C 198.789062 257.261719 193.730469 262.316406 187.496094 262.316406 C 181.257812 262.316406 176.199219 257.261719 176.199219 251.019531 L 176.199219 185.011719 " fill-opacity="1" fill-rule="nonzero"/></svg>