<svg xmlns="http://www.w3.org/2000/svg" xmlns:xlink="http://www.w3.org/1999/xlink" width="500" zoomAndPan="magnify" viewBox="0 0 375 374.999991" height="500" preserveAspectRatio="xMidYMid meet" version="1.0"><rect x="-37.5" width="450" fill="#ffffff" y="-37.499999" height="449.999989" fill-opacity="1"/><rect x="-37.5" width="450" fill="#ffffff" y="-37.499999" height="449.999989" fill-opacity="1"/><path fill="#000000" d="M 187.359375 0 C 101.054688 0 31.015625 69.917969 31.015625 156.25 C 31.015625 199.375 48.511719 238.429688 76.824219 266.71875 L 187.359375 375 L 297.929688 266.695312 C 326.234375 238.433594 343.734375 199.378906 343.699219 156.21875 C 343.699219 69.992188 273.710938 0 187.359375 0 Z M 275.835938 244.566406 L 187.359375 331.238281 L 98.71875 244.382812 C 75.292969 221.011719 62.28125 189.625 62.28125 156.253906 C 62.28125 87.328125 118.394531 31.25 187.359375 31.25 C 220.761719 31.25 252.183594 44.269531 275.804688 67.875 C 299.425781 91.496094 312.433594 122.867188 312.433594 156.226562 C 312.464844 189.625 299.453125 220.984375 275.835938 244.566406 Z M 275.835938 244.566406 " fill-opacity="1" fill-rule="nonzero"/><path fill="#000000" d="M 187.359375 78.125 L 109.1875 156.25 L 132.636719 156.25 L 132.636719 218.746094 L 171.726562 218.746094 L 171.726562 171.875 L 202.992188 171.875 L 202.992188 218.746094 L 242.082031 218.746094 L 242.082031 156.25 L 265.53125 156.25 Z M 187.359375 78.125 " fill-opacity="1" fill-rule="nonzero"/></svg>