<svg xmlns="http://www.w3.org/2000/svg" xmlns:xlink="http://www.w3.org/1999/xlink" width="500" zoomAndPan="magnify" viewBox="0 0 375 374.999991" height="500" preserveAspectRatio="xMidYMid meet" version="1.0"><rect x="-37.5" width="450" fill="#ffffff" y="-37.499999" height="449.999989" fill-opacity="1"/><rect x="-37.5" width="450" fill="#ffffff" y="-37.499999" height="449.999989" fill-opacity="1"/><path fill="#000000" d="M 78.824219 0 L 296.171875 0 C 317.875 0 337.535156 8.855469 351.796875 23.203125 C 366.144531 37.464844 375 57.125 375 78.824219 L 375 296.171875 C 375 317.875 366.144531 337.535156 351.796875 351.796875 C 337.535156 366.144531 317.875 375 296.171875 375 L 78.824219 375 C 57.125 375 37.464844 366.144531 23.203125 351.796875 C 8.855469 337.535156 0 317.875 0 296.171875 L 0 78.824219 C 0 57.125 8.855469 37.464844 23.203125 23.203125 C 37.464844 8.855469 57.125 0 78.824219 0 Z M 302.109375 61.464844 C 306.359375 61.464844 309.902344 65.007812 309.902344 69.261719 C 309.902344 73.601562 306.359375 77.054688 302.109375 77.054688 C 297.769531 77.054688 294.3125 73.601562 294.3125 69.261719 C 294.3125 65.007812 297.769531 61.464844 302.109375 61.464844 Z M 187.5 82.8125 C 245.335938 82.8125 292.1875 129.664062 292.1875 187.5 C 292.1875 245.335938 245.335938 292.1875 187.5 292.1875 C 129.664062 292.1875 82.8125 245.335938 82.8125 187.5 C 82.8125 129.664062 129.664062 82.8125 187.5 82.8125 Z M 277.21875 187.5 C 277.21875 137.988281 237.011719 97.78125 187.5 97.78125 C 137.988281 97.78125 97.78125 137.988281 97.78125 187.5 C 97.78125 237.011719 137.988281 277.21875 187.5 277.21875 C 237.011719 277.21875 277.21875 237.011719 277.21875 187.5 Z M 296.171875 15.058594 L 78.824219 15.058594 C 61.289062 15.058594 45.347656 22.230469 33.746094 33.746094 C 22.230469 45.347656 15.058594 61.289062 15.058594 78.824219 L 15.058594 296.171875 C 15.058594 313.710938 22.230469 329.652344 33.746094 341.253906 C 45.347656 352.769531 61.289062 359.941406 78.824219 359.941406 L 296.171875 359.941406 C 313.710938 359.941406 329.652344 352.769531 341.253906 341.253906 C 352.769531 329.652344 359.941406 313.710938 359.941406 296.171875 L 359.941406 78.824219 C 359.941406 61.289062 352.769531 45.347656 341.253906 33.746094 C 329.652344 22.230469 313.710938 15.058594 296.171875 15.058594 Z M 296.171875 15.058594 " fill-opacity="1" fill-rule="nonzero"/></svg>