<svg xmlns="http://www.w3.org/2000/svg" xmlns:xlink="http://www.w3.org/1999/xlink" width="500" zoomAndPan="magnify" viewBox="0 0 375 374.999991" height="500" preserveAspectRatio="xMidYMid meet" version="1.0"><defs><clipPath id="496cbc64c7"><path d="M 5.96875 230.113281 L 369.035156 230.113281 L 369.035156 375 L 5.96875 375 Z M 5.96875 230.113281 " clip-rule="nonzero"/></clipPath></defs><rect x="-37.5" width="450" fill="#ffffff" y="-37.499999" height="449.999989" fill-opacity="1"/><rect x="-37.5" width="450" fill="#ffffff" y="-37.499999" height="449.999989" fill-opacity="1"/><path fill="#040606" d="M 189.566406 143.355469 C 166.714844 143.355469 148.195312 124.84375 148.195312 101.972656 C 148.195312 79.136719 166.714844 60.589844 189.566406 60.589844 C 212.449219 60.589844 230.96875 79.136719 230.96875 101.972656 C 230.96875 124.84375 212.449219 143.355469 189.566406 143.355469 Z M 287.992188 65.1875 C 282.597656 52.46875 274.902344 41.082031 265.109375 31.261719 C 255.285156 21.472656 243.859375 13.78125 231.167969 8.390625 C 217.976562 2.828125 203.988281 0 189.566406 0 C 175.175781 0 161.1875 2.828125 147.996094 8.390625 C 135.273438 13.78125 123.847656 21.472656 114.054688 31.261719 C 104.261719 41.082031 96.535156 52.5 91.171875 65.1875 C 85.574219 78.367188 82.777344 92.351562 82.777344 106.765625 C 82.777344 130.9375 99.898438 169.957031 133.671875 222.65625 C 158.457031 261.308594 183.570312 293.667969 183.804688 293.96875 L 189.566406 301.390625 L 195.328125 293.96875 C 195.59375 293.667969 220.710938 261.308594 245.492188 222.65625 C 279.265625 169.957031 296.386719 130.96875 296.386719 106.765625 C 296.386719 92.351562 293.554688 78.367188 287.992188 65.1875 " fill-opacity="1" fill-rule="nonzero"/><g clip-path="url(#496cbc64c7)"><path fill="#040606" d="M 353.011719 268.332031 C 343.585938 259.675781 330.261719 251.953125 313.410156 245.394531 C 298.1875 239.5 280.730469 234.773438 261.847656 231.410156 C 259.546875 235.105469 257.148438 238.871094 254.683594 242.699219 C 254.285156 243.332031 253.886719 243.996094 253.453125 244.664062 C 273.671875 247.925781 292.222656 252.71875 308.144531 258.910156 C 337.65625 270.363281 354.613281 285.34375 354.613281 300.058594 C 354.613281 314.707031 337.65625 329.722656 308.144531 341.175781 C 276.035156 353.660156 233.199219 360.519531 187.5 360.519531 C 141.832031 360.519531 99 353.660156 66.890625 341.175781 C 37.34375 329.722656 20.457031 314.707031 20.457031 300.058594 C 20.457031 285.34375 37.34375 270.363281 66.890625 258.910156 C 83.777344 252.320312 103.660156 247.324219 125.347656 244.0625 C 125.046875 243.597656 124.78125 243.164062 124.480469 242.699219 C 121.882812 238.667969 119.382812 234.675781 116.953125 230.746094 C 96.601562 234.175781 77.847656 239.101562 61.660156 245.394531 C 44.773438 251.953125 31.449219 259.675781 22.023438 268.367188 C 11.363281 278.121094 5.96875 288.808594 5.96875 300.058594 C 5.96875 311.277344 11.363281 321.964844 22.023438 331.71875 C 31.449219 340.410156 44.773438 348.132812 61.660156 354.660156 C 95.367188 367.777344 140.101562 375 187.535156 375 C 234.964844 375 279.667969 367.777344 313.410156 354.660156 C 330.261719 348.132812 343.585938 340.410156 353.046875 331.71875 C 363.671875 321.964844 369.066406 311.277344 369.066406 300.058594 C 369.066406 288.773438 363.671875 278.121094 353.011719 268.332031 " fill-opacity="1" fill-rule="nonzero"/></g><path fill="#040606" d="M 268.339844 298.296875 C 268.339844 285.542969 252.753906 277.054688 231.867188 272.460938 C 228.738281 276.988281 225.707031 281.316406 222.808594 285.378906 C 228.304688 286.375 233.398438 287.574219 237.929688 289.039062 C 251.085938 293.234375 253.851562 297.628906 253.851562 298.296875 C 253.851562 298.996094 251.085938 303.390625 237.929688 307.582031 C 228.136719 310.714844 215.746094 312.777344 202.222656 313.578125 C 202.222656 313.609375 202.191406 313.644531 202.191406 313.644531 C 198.058594 313.910156 193.863281 314.007812 189.566406 314.007812 C 185.070312 314.007812 180.605469 313.875 176.273438 313.609375 C 176.242188 313.578125 176.242188 313.578125 176.242188 313.542969 C 162.984375 312.710938 150.859375 310.679688 141.234375 307.582031 C 128.078125 303.390625 125.3125 298.996094 125.3125 298.296875 C 125.3125 297.628906 128.078125 293.234375 141.234375 289.039062 C 145.597656 287.640625 150.496094 286.445312 155.757812 285.511719 C 152.859375 281.449219 149.828125 277.121094 146.695312 272.5625 C 126.144531 277.222656 110.824219 285.679688 110.824219 298.296875 L 110.824219 298.394531 C 110.824219 319.070312 151.660156 328.492188 189.566406 328.492188 C 227.503906 328.492188 268.339844 319.070312 268.339844 298.394531 L 268.339844 298.296875 " fill-opacity="1" fill-rule="nonzero"/></svg>