<svg xmlns="http://www.w3.org/2000/svg" xmlns:xlink="http://www.w3.org/1999/xlink" width="500" zoomAndPan="magnify" viewBox="0 0 375 374.999991" height="500" preserveAspectRatio="xMidYMid meet" version="1.0"><defs><clipPath id="451f93e687"><path d="M 12 16 L 361 16 L 361 362.25 L 12 362.25 Z M 12 16 " clip-rule="nonzero"/></clipPath></defs><rect x="-37.5" width="450" fill="#ffffff" y="-37.499999" height="449.999989" fill-opacity="1"/><rect x="-37.5" width="450" fill="#ffffff" y="-37.499999" height="449.999989" fill-opacity="1"/><g clip-path="url(#451f93e687)"><path fill="#000000" d="M 188.058594 362.132812 C 179.234375 362.15625 170.460938 361.496094 161.738281 360.160156 C 153.015625 358.824219 144.445312 356.820312 136.035156 354.15625 C 127.621094 351.492188 119.460938 348.199219 111.554688 344.269531 C 103.652344 340.34375 96.097656 335.832031 88.890625 330.734375 L 12.21875 353.761719 L 41.503906 280.523438 C 39.839844 277.835938 38.246094 275.109375 36.726562 272.335938 C 35.210938 269.5625 33.769531 266.746094 32.40625 263.894531 C 31.046875 261.042969 29.761719 258.15625 28.554688 255.230469 C 27.351562 252.308594 26.226562 249.355469 25.183594 246.371094 C 24.144531 243.386719 23.183594 240.375 22.304688 237.335938 C 21.425781 234.296875 20.632812 231.238281 19.925781 228.15625 C 19.214844 225.078125 18.589844 221.976562 18.050781 218.863281 C 17.511719 215.746094 17.054688 212.617188 16.6875 209.476562 C 16.320312 206.339844 16.039062 203.191406 15.839844 200.035156 C 15.644531 196.878906 15.535156 193.71875 15.515625 190.554688 C 15.492188 187.394531 15.554688 184.234375 15.707031 181.074219 C 15.859375 177.917969 16.09375 174.765625 16.417969 171.621094 C 16.742188 168.472656 17.152344 165.339844 17.648438 162.21875 C 18.144531 159.09375 18.726562 155.988281 19.390625 152.894531 C 20.058594 149.804688 20.808594 146.734375 21.640625 143.683594 C 22.476562 140.636719 23.394531 137.609375 24.394531 134.613281 C 25.394531 131.613281 26.476562 128.640625 27.636719 125.703125 C 28.800781 122.761719 30.042969 119.855469 31.367188 116.984375 C 32.6875 114.113281 34.089844 111.28125 35.566406 108.484375 C 37.046875 105.691406 38.597656 102.9375 40.226562 100.230469 C 41.855469 97.519531 43.558594 94.859375 45.332031 92.242188 C 47.109375 89.625 48.953125 87.0625 50.867188 84.546875 C 52.785156 82.03125 54.765625 79.570312 56.816406 77.167969 C 58.867188 74.761719 60.980469 72.414062 63.160156 70.125 C 65.339844 67.835938 67.582031 65.609375 69.882812 63.441406 C 72.183594 61.273438 74.542969 59.175781 76.957031 57.136719 C 79.375 55.101562 81.84375 53.132812 84.371094 51.230469 C 86.894531 49.332031 89.46875 47.5 92.09375 45.742188 C 94.71875 43.980469 97.390625 42.296875 100.105469 40.683594 C 102.824219 39.070312 105.582031 37.535156 108.382812 36.074219 C 111.1875 34.613281 114.023438 33.230469 116.902344 31.925781 C 119.78125 30.621094 122.691406 29.394531 125.636719 28.25 C 128.582031 27.105469 131.554688 26.042969 134.554688 25.0625 C 137.558594 24.078125 140.585938 23.183594 143.640625 22.367188 C 146.691406 21.550781 149.761719 20.820312 152.855469 20.175781 C 155.949219 19.527344 159.054688 18.96875 162.179688 18.492188 C 165.300781 18.015625 168.433594 17.628906 171.578125 17.324219 C 174.722656 17.019531 177.875 16.804688 181.03125 16.675781 C 184.183594 16.542969 187.34375 16.5 190.5 16.542969 C 193.660156 16.585938 196.816406 16.71875 199.964844 16.933594 C 203.117188 17.152344 206.261719 17.453125 209.394531 17.84375 C 212.53125 18.234375 215.652344 18.707031 218.761719 19.269531 C 221.871094 19.828125 224.960938 20.476562 228.035156 21.207031 C 231.105469 21.9375 234.15625 22.753906 237.1875 23.652344 C 240.214844 24.550781 243.21875 25.53125 246.191406 26.59375 C 249.167969 27.65625 252.109375 28.800781 255.023438 30.027344 C 257.933594 31.253906 260.808594 32.554688 263.652344 33.941406 C 266.492188 35.324219 269.292969 36.785156 272.050781 38.320312 C 274.8125 39.859375 277.527344 41.46875 280.203125 43.15625 C 282.875 44.84375 285.496094 46.601562 288.074219 48.429688 C 290.648438 50.261719 293.171875 52.164062 295.644531 54.132812 C 298.113281 56.101562 300.53125 58.136719 302.890625 60.238281 C 305.25 62.339844 307.550781 64.507812 309.792969 66.734375 C 312.03125 68.964844 314.210938 71.25 316.328125 73.597656 C 318.441406 75.949219 320.492188 78.351562 322.476562 80.8125 C 324.457031 83.273438 326.375 85.789062 328.21875 88.351562 C 330.066406 90.917969 331.839844 93.535156 333.542969 96.199219 C 335.246094 98.863281 336.871094 101.570312 338.425781 104.324219 C 339.980469 107.074219 341.457031 109.871094 342.859375 112.703125 C 344.257812 115.539062 345.582031 118.410156 346.824219 121.316406 C 348.066406 124.222656 349.230469 127.160156 350.3125 130.132812 C 351.394531 133.101562 352.394531 136.101562 353.3125 139.125 C 354.230469 142.152344 355.066406 145.199219 355.816406 148.273438 C 356.566406 151.34375 357.230469 154.433594 357.8125 157.542969 C 358.394531 160.648438 358.890625 163.773438 359.300781 166.90625 C 359.710938 170.042969 360.03125 173.1875 360.269531 176.339844 C 360.507812 179.492188 360.660156 182.648438 360.722656 185.8125 C 360.789062 188.972656 360.765625 192.132812 360.65625 195.292969 C 360.546875 198.453125 360.351562 201.609375 360.070312 204.757812 C 359.789062 207.90625 359.417969 211.046875 358.964844 214.175781 C 358.511719 217.304688 357.972656 220.421875 357.347656 223.519531 C 356.722656 226.621094 356.011719 229.699219 355.21875 232.761719 C 354.425781 235.820312 353.546875 238.855469 352.585938 241.871094 C 351.625 244.882812 350.585938 247.867188 349.460938 250.820312 C 348.335938 253.777344 347.132812 256.699219 345.847656 259.585938 C 344.5625 262.476562 343.199219 265.328125 341.761719 268.140625 C 340.320312 270.957031 338.804688 273.726562 337.210938 276.460938 C 335.617188 279.191406 333.949219 281.875 332.210938 284.515625 C 330.472656 287.152344 328.660156 289.742188 326.777344 292.28125 C 324.894531 294.820312 322.945312 297.308594 320.929688 299.742188 C 318.910156 302.171875 316.828125 304.546875 314.675781 306.867188 C 312.527344 309.183594 310.320312 311.441406 308.046875 313.636719 C 305.773438 315.835938 303.445312 317.96875 301.054688 320.035156 C 298.664062 322.105469 296.21875 324.105469 293.722656 326.039062 C 291.222656 327.972656 288.671875 329.835938 286.070312 331.632812 C 283.46875 333.425781 280.820312 335.148438 278.125 336.796875 C 275.429688 338.445312 272.691406 340.015625 269.910156 341.515625 C 267.128906 343.011719 264.308594 344.433594 261.445312 345.777344 C 258.585938 347.117188 255.691406 348.382812 252.765625 349.566406 C 249.835938 350.75 246.875 351.851562 243.886719 352.875 C 240.894531 353.894531 237.882812 354.832031 234.839844 355.6875 C 231.800781 356.542969 228.738281 357.316406 225.652344 358.003906 C 222.570312 358.691406 219.46875 359.292969 216.355469 359.808594 C 213.238281 360.328125 210.109375 360.757812 206.96875 361.101562 C 203.828125 361.449219 200.683594 361.707031 197.527344 361.878906 C 194.375 362.050781 191.21875 362.136719 188.058594 362.132812 Z M 90.679688 320.050781 L 92.621094 321.460938 C 99.507812 326.476562 106.746094 330.921875 114.335938 334.792969 C 121.925781 338.664062 129.773438 341.914062 137.875 344.542969 C 145.980469 347.167969 154.238281 349.144531 162.652344 350.464844 C 171.070312 351.785156 179.535156 352.433594 188.054688 352.414062 C 277.785156 352.414062 350.789062 279.335938 350.789062 189.507812 C 350.789062 99.683594 277.789062 26.605469 188.058594 26.605469 C 98.328125 26.605469 25.324219 99.683594 25.324219 189.507812 C 25.3125 197.257812 25.855469 204.96875 26.949219 212.640625 C 28.042969 220.3125 29.675781 227.871094 31.851562 235.308594 C 34.023438 242.746094 36.71875 249.988281 39.929688 257.042969 C 43.140625 264.09375 46.835938 270.878906 51.019531 277.402344 L 52.371094 279.507812 L 28.71875 338.65625 Z M 90.679688 320.050781 " fill-opacity="1" fill-rule="nonzero"/></g><path fill="#000000" d="M 245.417969 305.164062 C 244.09375 305.164062 242.761719 305.109375 241.417969 304.996094 C 238.597656 304.765625 235.78125 304.46875 232.972656 304.097656 C 230.164062 303.726562 227.363281 303.289062 224.578125 302.78125 C 221.789062 302.277344 219.015625 301.699219 216.257812 301.054688 C 213.5 300.414062 210.757812 299.703125 208.03125 298.921875 C 205.308594 298.144531 202.605469 297.300781 199.921875 296.386719 C 197.238281 295.476562 194.582031 294.5 191.945312 293.457031 C 189.3125 292.414062 186.703125 291.308594 184.125 290.140625 C 181.542969 288.96875 178.992188 287.734375 176.472656 286.4375 C 173.953125 285.144531 171.46875 283.785156 169.015625 282.367188 C 166.5625 280.949219 164.144531 279.472656 161.761719 277.933594 C 159.382812 276.398438 157.042969 274.800781 154.738281 273.148438 C 152.4375 271.496094 150.175781 269.789062 147.957031 268.023438 C 145.738281 266.261719 143.566406 264.445312 141.4375 262.574219 C 139.308594 260.703125 137.226562 258.78125 135.191406 256.808594 C 133.15625 254.835938 131.171875 252.8125 129.234375 250.742188 C 127.300781 248.671875 125.414062 246.554688 123.582031 244.390625 C 121.753906 242.226562 119.972656 240.019531 118.25 237.769531 C 116.527344 235.519531 114.859375 233.226562 113.25 230.894531 C 111.640625 228.5625 110.085938 226.191406 108.59375 223.78125 C 107.097656 221.371094 105.664062 218.925781 104.289062 216.445312 C 102.914062 213.96875 101.601562 211.457031 100.351562 208.910156 C 99.101562 206.367188 97.914062 203.792969 96.789062 201.191406 C 95.664062 198.585938 94.601562 195.957031 93.609375 193.304688 C 92.613281 190.648438 91.683594 187.96875 90.820312 185.269531 C 89.953125 182.570312 89.15625 179.847656 88.425781 177.109375 C 87.695312 174.367188 87.035156 171.613281 86.4375 168.839844 C 85.84375 166.066406 85.316406 163.28125 84.859375 160.484375 C 84.398438 157.683594 84.011719 154.875 83.6875 152.058594 C 83.367188 149.242188 83.117188 146.417969 82.9375 143.585938 C 82.753906 140.757812 82.640625 137.921875 82.597656 135.089844 C 82.554688 132.253906 82.582031 129.417969 82.679688 126.582031 C 82.777344 123.75 82.941406 120.917969 83.175781 118.09375 C 83.304688 116.519531 83.511719 114.957031 83.796875 113.402344 C 84.078125 111.851562 84.4375 110.316406 84.871094 108.796875 C 85.304688 107.28125 85.8125 105.789062 86.390625 104.320312 C 86.972656 102.851562 87.621094 101.414062 88.34375 100.011719 C 89.066406 98.609375 89.851562 97.242188 90.707031 95.917969 C 91.5625 94.589844 92.480469 93.308594 93.460938 92.074219 C 94.445312 90.835938 95.484375 89.652344 96.578125 88.519531 C 97.675781 87.382812 98.828125 86.308594 100.03125 85.285156 C 101.234375 84.265625 102.484375 83.308594 103.78125 82.410156 C 105.078125 81.511719 106.414062 80.679688 107.792969 79.914062 C 109.171875 79.148438 110.585938 78.449219 112.035156 77.824219 C 113.480469 77.195312 114.953125 76.640625 116.457031 76.160156 C 117.957031 75.675781 119.480469 75.269531 121.023438 74.9375 C 122.5625 74.605469 124.117188 74.347656 125.683594 74.167969 C 127.25 73.992188 128.824219 73.886719 130.398438 73.863281 C 131.976562 73.839844 133.550781 73.890625 135.121094 74.019531 C 139.71875 74.394531 144.171875 75.414062 148.480469 77.070312 C 149.714844 77.546875 150.921875 78.070312 152.058594 78.625 L 154.40625 79.769531 L 164.5625 156.867188 L 162.574219 158.582031 C 157.675781 162.804688 152.148438 165.917969 145.996094 167.917969 C 148.558594 175.785156 151.925781 183.289062 156.089844 190.433594 C 160.257812 197.582031 165.132812 204.203125 170.714844 210.308594 L 170.730469 210.324219 C 179.90625 220.378906 190.53125 228.535156 202.613281 234.796875 C 205.4375 229.351562 209.164062 224.613281 213.789062 220.585938 L 215.617188 218.996094 L 288.035156 234.472656 L 289.054688 236.667969 C 290.8125 240.453125 292.058594 244.402344 292.789062 248.515625 C 293.519531 252.628906 293.710938 256.765625 293.367188 260.929688 C 293.242188 262.417969 293.046875 263.898438 292.785156 265.367188 C 292.523438 266.839844 292.195312 268.296875 291.796875 269.738281 C 291.398438 271.175781 290.9375 272.597656 290.410156 273.992188 C 289.878906 275.390625 289.289062 276.761719 288.632812 278.105469 C 287.976562 279.445312 287.257812 280.753906 286.480469 282.03125 C 285.703125 283.308594 284.867188 284.542969 283.976562 285.742188 C 283.085938 286.941406 282.140625 288.09375 281.140625 289.203125 C 280.140625 290.316406 279.089844 291.375 277.992188 292.390625 C 276.894531 293.402344 275.753906 294.363281 274.566406 295.269531 C 273.378906 296.175781 272.152344 297.023438 270.886719 297.816406 C 269.621094 298.609375 268.324219 299.34375 266.988281 300.011719 C 265.65625 300.683594 264.292969 301.292969 262.902344 301.839844 C 261.511719 302.382812 260.101562 302.863281 258.667969 303.277344 C 257.230469 303.691406 255.78125 304.035156 254.3125 304.316406 C 252.847656 304.59375 251.371094 304.804688 249.886719 304.945312 C 248.398438 305.085938 246.910156 305.160156 245.417969 305.164062 Z M 131.097656 83.578125 C 129.90625 83.578125 128.714844 83.636719 127.53125 83.75 C 126.34375 83.863281 125.164062 84.027344 123.996094 84.25 C 122.824219 84.472656 121.667969 84.75 120.523438 85.082031 C 119.375 85.410156 118.25 85.792969 117.140625 86.230469 C 116.03125 86.664062 114.945312 87.148438 113.878906 87.6875 C 112.816406 88.222656 111.777344 88.808594 110.769531 89.441406 C 109.757812 90.074219 108.78125 90.75 107.832031 91.472656 C 106.886719 92.199219 105.976562 92.964844 105.097656 93.773438 C 104.222656 94.582031 103.386719 95.429688 102.589844 96.316406 C 101.792969 97.203125 101.039062 98.125 100.328125 99.082031 C 99.617188 100.039062 98.949219 101.027344 98.332031 102.042969 C 97.710938 103.0625 97.140625 104.109375 96.617188 105.179688 C 96.09375 106.253906 95.625 107.347656 95.203125 108.460938 C 94.78125 109.578125 94.414062 110.710938 94.097656 111.859375 C 93.78125 113.011719 93.519531 114.171875 93.3125 115.347656 C 93.105469 116.523438 92.953125 117.703125 92.855469 118.890625 C 92.632812 121.558594 92.480469 124.230469 92.390625 126.90625 C 92.300781 129.578125 92.277344 132.253906 92.320312 134.929688 C 92.363281 137.605469 92.472656 140.28125 92.644531 142.949219 C 92.816406 145.621094 93.054688 148.285156 93.359375 150.945312 C 93.664062 153.601562 94.035156 156.253906 94.46875 158.894531 C 94.902344 161.535156 95.402344 164.164062 95.964844 166.777344 C 96.527344 169.394531 97.152344 171.996094 97.84375 174.582031 C 98.535156 177.167969 99.289062 179.734375 100.105469 182.28125 C 100.921875 184.828125 101.800781 187.355469 102.738281 189.863281 C 103.679688 192.367188 104.679688 194.847656 105.742188 197.304688 C 106.804688 199.757812 107.925781 202.1875 109.109375 204.589844 C 110.289062 206.988281 111.527344 209.359375 112.824219 211.699219 C 114.125 214.039062 115.476562 216.347656 116.886719 218.621094 C 118.296875 220.894531 119.761719 223.128906 121.285156 225.332031 C 122.804688 227.535156 124.378906 229.695312 126.003906 231.820312 C 127.628906 233.945312 129.308594 236.027344 131.035156 238.066406 C 132.765625 240.109375 134.542969 242.109375 136.367188 244.0625 C 138.195312 246.015625 140.070312 247.925781 141.988281 249.785156 C 143.910156 251.648438 145.875 253.460938 147.882812 255.226562 C 149.890625 256.992188 151.941406 258.707031 154.035156 260.375 C 156.128906 262.039062 158.261719 263.652344 160.433594 265.210938 C 162.605469 266.769531 164.816406 268.277344 167.0625 269.726562 C 169.308594 271.179688 171.585938 272.574219 173.902344 273.914062 C 176.21875 275.253906 178.5625 276.535156 180.941406 277.757812 C 183.316406 278.984375 185.722656 280.148438 188.160156 281.253906 C 190.59375 282.359375 193.054688 283.402344 195.539062 284.390625 C 198.023438 285.375 200.53125 286.296875 203.0625 287.160156 C 205.59375 288.019531 208.144531 288.820312 210.714844 289.554688 C 213.285156 290.292969 215.875 290.964844 218.476562 291.574219 C 221.078125 292.183594 223.695312 292.726562 226.328125 293.207031 C 228.957031 293.6875 231.597656 294.101562 234.246094 294.453125 C 236.898438 294.804688 239.554688 295.089844 242.21875 295.308594 C 242.960938 295.371094 243.703125 295.410156 244.445312 295.425781 C 245.1875 295.445312 245.929688 295.441406 246.671875 295.417969 C 247.417969 295.390625 248.15625 295.34375 248.898438 295.273438 C 249.636719 295.207031 250.375 295.117188 251.109375 295.007812 C 251.847656 294.894531 252.578125 294.761719 253.304688 294.609375 C 254.03125 294.453125 254.753906 294.28125 255.472656 294.085938 C 256.1875 293.890625 256.898438 293.671875 257.605469 293.4375 C 258.308594 293.199219 259.003906 292.941406 259.695312 292.664062 C 260.386719 292.386719 261.066406 292.089844 261.738281 291.773438 C 262.410156 291.457031 263.074219 291.121094 263.726562 290.765625 C 264.378906 290.410156 265.023438 290.035156 265.652344 289.644531 C 266.285156 289.25 266.90625 288.839844 267.511719 288.410156 C 268.121094 287.984375 268.714844 287.535156 269.296875 287.074219 C 269.878906 286.609375 270.445312 286.132812 271 285.636719 C 271.554688 285.140625 272.09375 284.628906 272.617188 284.101562 C 273.140625 283.574219 273.652344 283.03125 274.144531 282.472656 C 274.636719 281.917969 275.113281 281.347656 275.574219 280.761719 C 276.035156 280.175781 276.476562 279.578125 276.902344 278.96875 C 277.328125 278.359375 277.734375 277.738281 278.125 277.101562 C 278.511719 276.46875 278.882812 275.824219 279.234375 275.167969 C 279.585938 274.515625 279.917969 273.847656 280.234375 273.175781 C 280.546875 272.5 280.839844 271.816406 281.113281 271.125 C 281.386719 270.433594 281.640625 269.734375 281.875 269.027344 C 282.109375 268.320312 282.320312 267.609375 282.511719 266.890625 C 282.703125 266.171875 282.875 265.445312 283.027344 264.71875 C 283.175781 263.988281 283.304688 263.257812 283.414062 262.519531 C 283.519531 261.785156 283.605469 261.046875 283.671875 260.304688 C 283.738281 259.5625 283.78125 258.820312 283.800781 258.078125 C 283.824219 257.332031 283.824219 256.589844 283.804688 255.847656 C 283.78125 255.101562 283.738281 254.359375 283.675781 253.617188 C 283.609375 252.875 283.527344 252.136719 283.417969 251.402344 C 283.3125 250.664062 283.183594 249.933594 283.035156 249.203125 C 282.597656 247.066406 281.980469 244.980469 281.183594 242.949219 L 218.417969 229.539062 C 214.46875 233.421875 211.496094 237.949219 209.503906 243.121094 L 207.636719 247.976562 L 202.921875 245.78125 C 195.785156 242.464844 189.023438 238.5 182.640625 233.894531 C 176.253906 229.285156 170.363281 224.117188 164.960938 218.390625 L 162.109375 218.277344 L 162.214844 215.390625 C 155.894531 208.257812 150.457031 200.507812 145.902344 192.136719 C 141.34375 183.769531 137.785156 174.992188 135.222656 165.8125 L 133.832031 160.796875 L 138.925781 159.75 C 144.542969 158.589844 149.648438 156.28125 154.234375 152.832031 L 145.472656 86.332031 C 145.3125 86.269531 145.152344 86.203125 144.988281 86.140625 C 141.550781 84.820312 137.996094 84.007812 134.324219 83.710938 C 133.246094 83.621094 132.167969 83.578125 131.097656 83.578125 Z M 131.097656 83.578125 " fill-opacity="1" fill-rule="nonzero"/></svg>